<svg width="267" height="62" viewBox="0 0 267 62" fill="none" xmlns="http://www.w3.org/2000/svg">
<path d="M73.85 42C73.63 42 73.45 41.93 73.31 41.79C73.17 41.65 73.1 41.47 73.1 41.25V21.75C73.1 21.53 73.17 21.35 73.31 21.21C73.45 21.07 73.63 21 73.85 21H82.25C83.91 21 85.35 21.26 86.57 21.78C87.81 22.28 88.77 23.04 89.45 24.06C90.15 25.08 90.5 26.37 90.5 27.93C90.5 29.47 90.15 30.74 89.45 31.74C88.77 32.74 87.81 33.48 86.57 33.96C85.35 34.44 83.91 34.68 82.25 34.68H78.68V41.25C78.68 41.47 78.6 41.65 78.44 41.79C78.3 41.93 78.12 42 77.9 42H73.85ZM78.59 30.54H82.1C82.96 30.54 83.64 30.32 84.14 29.88C84.66 29.44 84.92 28.77 84.92 27.87C84.92 27.11 84.7 26.47 84.26 25.95C83.82 25.43 83.1 25.17 82.1 25.17H78.59V30.54ZM98.7734 42.3C97.6334 42.3 96.6134 42.04 95.7134 41.52C94.8334 41 94.1434 40.24 93.6434 39.24C93.1434 38.22 92.8934 36.98 92.8934 35.52V27.15C92.8934 26.93 92.9634 26.75 93.1034 26.61C93.2434 26.47 93.4234 26.4 93.6434 26.4H97.3934C97.6134 26.4 97.7934 26.47 97.9334 26.61C98.0734 26.75 98.1434 26.93 98.1434 27.15V35.34C98.1434 37.3 99.0234 38.28 100.783 38.28C101.603 38.28 102.253 38.03 102.733 37.53C103.233 37.01 103.483 36.28 103.483 35.34V27.15C103.483 26.93 103.553 26.75 103.693 26.61C103.833 26.47 104.013 26.4 104.233 26.4H107.983C108.203 26.4 108.383 26.47 108.523 26.61C108.663 26.75 108.733 26.93 108.733 27.15V41.25C108.733 41.47 108.663 41.65 108.523 41.79C108.383 41.93 108.203 42 107.983 42H104.503C104.303 42 104.123 41.93 103.963 41.79C103.823 41.65 103.753 41.47 103.753 41.25V40.11C103.233 40.83 102.553 41.38 101.713 41.76C100.893 42.12 99.9134 42.3 98.7734 42.3ZM113.012 47.7C112.792 47.7 112.612 47.63 112.472 47.49C112.332 47.35 112.262 47.17 112.262 46.95V27.15C112.262 26.93 112.332 26.75 112.472 26.61C112.612 26.47 112.792 26.4 113.012 26.4H116.402C116.602 26.4 116.772 26.47 116.912 26.61C117.072 26.75 117.152 26.93 117.152 27.15V28.26C117.612 27.64 118.222 27.13 118.982 26.73C119.742 26.31 120.682 26.1 121.802 26.1C122.802 26.1 123.682 26.26 124.442 26.58C125.202 26.88 125.852 27.33 126.392 27.93C126.932 28.53 127.352 29.26 127.652 30.12C127.972 30.98 128.152 31.97 128.192 33.09C128.212 33.49 128.222 33.86 128.222 34.2C128.222 34.54 128.212 34.91 128.192 35.31C128.152 36.39 127.982 37.36 127.682 38.22C127.382 39.08 126.962 39.81 126.422 40.41C125.882 41.01 125.222 41.48 124.442 41.82C123.682 42.14 122.802 42.3 121.802 42.3C120.822 42.3 119.962 42.13 119.222 41.79C118.502 41.43 117.902 40.93 117.422 40.29V46.95C117.422 47.17 117.352 47.35 117.212 47.49C117.072 47.63 116.892 47.7 116.672 47.7H113.012ZM120.182 38.28C120.862 38.28 121.392 38.14 121.772 37.86C122.152 37.58 122.422 37.2 122.582 36.72C122.762 36.24 122.872 35.71 122.912 35.13C122.952 34.51 122.952 33.89 122.912 33.27C122.872 32.69 122.762 32.16 122.582 31.68C122.422 31.2 122.152 30.82 121.772 30.54C121.392 30.26 120.862 30.12 120.182 30.12C119.522 30.12 118.992 30.27 118.592 30.57C118.192 30.85 117.902 31.22 117.722 31.68C117.542 32.14 117.442 32.64 117.422 33.18C117.402 33.56 117.392 33.93 117.392 34.29C117.392 34.65 117.402 35.03 117.422 35.43C117.442 35.93 117.552 36.4 117.752 36.84C117.952 37.26 118.252 37.61 118.652 37.89C119.052 38.15 119.562 38.28 120.182 38.28ZM131.938 47.7C131.718 47.7 131.538 47.63 131.398 47.49C131.258 47.35 131.188 47.17 131.188 46.95V27.15C131.188 26.93 131.258 26.75 131.398 26.61C131.538 26.47 131.718 26.4 131.938 26.4H135.328C135.528 26.4 135.698 26.47 135.838 26.61C135.998 26.75 136.078 26.93 136.078 27.15V28.26C136.538 27.64 137.148 27.13 137.908 26.73C138.668 26.31 139.608 26.1 140.728 26.1C141.728 26.1 142.608 26.26 143.368 26.58C144.128 26.88 144.778 27.33 145.318 27.93C145.858 28.53 146.278 29.26 146.578 30.12C146.898 30.98 147.078 31.97 147.118 33.09C147.138 33.49 147.148 33.86 147.148 34.2C147.148 34.54 147.138 34.91 147.118 35.31C147.078 36.39 146.908 37.36 146.608 38.22C146.308 39.08 145.888 39.81 145.348 40.41C144.808 41.01 144.148 41.48 143.368 41.82C142.608 42.14 141.728 42.3 140.728 42.3C139.748 42.3 138.888 42.13 138.148 41.79C137.428 41.43 136.828 40.93 136.348 40.29V46.95C136.348 47.17 136.278 47.35 136.138 47.49C135.998 47.63 135.818 47.7 135.598 47.7H131.938ZM139.108 38.28C139.788 38.28 140.318 38.14 140.698 37.86C141.078 37.58 141.348 37.2 141.508 36.72C141.688 36.24 141.798 35.71 141.838 35.13C141.878 34.51 141.878 33.89 141.838 33.27C141.798 32.69 141.688 32.16 141.508 31.68C141.348 31.2 141.078 30.82 140.698 30.54C140.318 30.26 139.788 30.12 139.108 30.12C138.448 30.12 137.918 30.27 137.518 30.57C137.118 30.85 136.828 31.22 136.648 31.68C136.468 32.14 136.368 32.64 136.348 33.18C136.328 33.56 136.318 33.93 136.318 34.29C136.318 34.65 136.328 35.03 136.348 35.43C136.368 35.93 136.478 36.4 136.678 36.84C136.878 37.26 137.178 37.61 137.578 37.89C137.978 38.15 138.488 38.28 139.108 38.28ZM152.379 47.7C152.199 47.7 152.049 47.64 151.929 47.52C151.809 47.4 151.749 47.25 151.749 47.07C151.749 47.03 151.749 46.97 151.749 46.89C151.769 46.83 151.799 46.76 151.839 46.68L154.179 41.04L148.419 27.42C148.359 27.28 148.329 27.16 148.329 27.06C148.369 26.88 148.449 26.73 148.569 26.61C148.689 26.47 148.839 26.4 149.019 26.4H152.439C152.699 26.4 152.889 26.47 153.009 26.61C153.149 26.73 153.239 26.87 153.279 27.03L156.729 35.76L160.239 27.03C160.319 26.87 160.419 26.73 160.539 26.61C160.679 26.47 160.879 26.4 161.139 26.4H164.499C164.679 26.4 164.829 26.47 164.949 26.61C165.089 26.73 165.159 26.87 165.159 27.03C165.159 27.13 165.129 27.26 165.069 27.42L156.579 47.07C156.519 47.23 156.419 47.37 156.279 47.49C156.139 47.63 155.939 47.7 155.679 47.7H152.379ZM174.075 42C173.855 42 173.675 41.93 173.535 41.79C173.395 41.65 173.325 41.47 173.325 41.25V21.75C173.325 21.53 173.395 21.35 173.535 21.21C173.675 21.07 173.855 21 174.075 21H182.235C184.815 21 186.845 21.6 188.325 22.8C189.825 23.98 190.575 25.66 190.575 27.84C190.575 29.26 190.225 30.46 189.525 31.44C188.845 32.42 187.945 33.16 186.825 33.66L190.965 41.04C191.025 41.16 191.055 41.27 191.055 41.37C191.055 41.53 190.985 41.68 190.845 41.82C190.725 41.94 190.575 42 190.395 42H186.435C186.055 42 185.775 41.91 185.595 41.73C185.415 41.53 185.285 41.35 185.205 41.19L181.785 34.59H178.695V41.25C178.695 41.47 178.625 41.65 178.485 41.79C178.345 41.93 178.165 42 177.945 42H174.075ZM178.695 30.36H182.175C183.115 30.36 183.815 30.13 184.275 29.67C184.755 29.21 184.995 28.58 184.995 27.78C184.995 27 184.765 26.37 184.305 25.89C183.865 25.41 183.155 25.17 182.175 25.17H178.695V30.36ZM198.417 42.3C197.337 42.3 196.367 42.1 195.507 41.7C194.667 41.28 193.997 40.72 193.497 40.02C192.997 39.32 192.747 38.53 192.747 37.65C192.747 36.23 193.327 35.11 194.487 34.29C195.647 33.45 197.187 32.88 199.107 32.58L202.857 32.01V31.59C202.857 30.87 202.707 30.32 202.407 29.94C202.107 29.56 201.557 29.37 200.757 29.37C200.197 29.37 199.737 29.48 199.377 29.7C199.037 29.92 198.767 30.22 198.567 30.6C198.387 30.86 198.137 30.99 197.817 30.99H194.457C194.237 30.99 194.067 30.93 193.947 30.81C193.827 30.67 193.777 30.51 193.797 30.33C193.797 29.97 193.927 29.56 194.187 29.1C194.467 28.62 194.887 28.15 195.447 27.69C196.007 27.23 196.727 26.85 197.607 26.55C198.487 26.25 199.547 26.1 200.787 26.1C202.087 26.1 203.197 26.25 204.117 26.55C205.037 26.85 205.777 27.27 206.337 27.81C206.917 28.35 207.347 28.99 207.627 29.73C207.907 30.45 208.047 31.25 208.047 32.13V41.25C208.047 41.47 207.967 41.65 207.807 41.79C207.667 41.93 207.497 42 207.297 42H203.817C203.597 42 203.417 41.93 203.277 41.79C203.137 41.65 203.067 41.47 203.067 41.25V40.2C202.807 40.58 202.457 40.93 202.017 41.25C201.577 41.57 201.057 41.82 200.457 42C199.877 42.2 199.197 42.3 198.417 42.3ZM199.827 38.88C200.407 38.88 200.927 38.76 201.387 38.52C201.867 38.26 202.237 37.87 202.497 37.35C202.777 36.81 202.917 36.14 202.917 35.34V34.92L200.367 35.37C199.427 35.53 198.737 35.78 198.297 36.12C197.877 36.44 197.667 36.82 197.667 37.26C197.667 37.6 197.767 37.89 197.967 38.13C198.167 38.37 198.427 38.56 198.747 38.7C199.067 38.82 199.427 38.88 199.827 38.88ZM217.252 42.3C216.292 42.3 215.422 42.15 214.642 41.85C213.882 41.53 213.222 41.07 212.662 40.47C212.122 39.85 211.702 39.11 211.402 38.25C211.102 37.37 210.932 36.37 210.892 35.25C210.872 34.85 210.862 34.5 210.862 34.2C210.862 33.88 210.872 33.53 210.892 33.15C210.932 32.07 211.102 31.1 211.402 30.24C211.702 29.38 212.122 28.64 212.662 28.02C213.202 27.4 213.862 26.93 214.642 26.61C215.422 26.27 216.292 26.1 217.252 26.1C218.252 26.1 219.112 26.27 219.832 26.61C220.552 26.93 221.162 27.35 221.662 27.87V21.45C221.662 21.23 221.732 21.05 221.872 20.91C222.012 20.77 222.192 20.7 222.412 20.7H226.072C226.272 20.7 226.442 20.77 226.582 20.91C226.742 21.05 226.822 21.23 226.822 21.45V41.25C226.822 41.47 226.742 41.65 226.582 41.79C226.442 41.93 226.272 42 226.072 42H222.682C222.462 42 222.282 41.93 222.142 41.79C222.002 41.65 221.932 41.47 221.932 41.25V40.29C221.452 40.87 220.832 41.35 220.072 41.73C219.312 42.11 218.372 42.3 217.252 42.3ZM218.872 38.28C219.552 38.28 220.082 38.14 220.462 37.86C220.862 37.56 221.152 37.18 221.332 36.72C221.532 36.26 221.642 35.76 221.662 35.22C221.682 34.82 221.692 34.44 221.692 34.08C221.692 33.72 221.682 33.35 221.662 32.97C221.642 32.47 221.532 32.01 221.332 31.59C221.132 31.15 220.832 30.8 220.432 30.54C220.032 30.26 219.512 30.12 218.872 30.12C218.212 30.12 217.682 30.26 217.282 30.54C216.902 30.82 216.632 31.2 216.472 31.68C216.312 32.16 216.212 32.69 216.172 33.27C216.112 33.89 216.112 34.51 216.172 35.13C216.212 35.71 216.312 36.24 216.472 36.72C216.632 37.2 216.902 37.58 217.282 37.86C217.682 38.14 218.212 38.28 218.872 38.28ZM235.038 42.3C233.958 42.3 232.988 42.1 232.128 41.7C231.288 41.28 230.618 40.72 230.118 40.02C229.618 39.32 229.368 38.53 229.368 37.65C229.368 36.23 229.948 35.11 231.108 34.29C232.268 33.45 233.808 32.88 235.728 32.58L239.478 32.01V31.59C239.478 30.87 239.328 30.32 239.028 29.94C238.728 29.56 238.178 29.37 237.378 29.37C236.818 29.37 236.358 29.48 235.998 29.7C235.658 29.92 235.388 30.22 235.188 30.6C235.008 30.86 234.758 30.99 234.438 30.99H231.078C230.858 30.99 230.688 30.93 230.568 30.81C230.448 30.67 230.398 30.51 230.418 30.33C230.418 29.97 230.548 29.56 230.808 29.1C231.088 28.62 231.508 28.15 232.068 27.69C232.628 27.23 233.348 26.85 234.228 26.55C235.108 26.25 236.168 26.1 237.408 26.1C238.708 26.1 239.818 26.25 240.738 26.55C241.658 26.85 242.398 27.27 242.958 27.81C243.538 28.35 243.968 28.99 244.248 29.73C244.528 30.45 244.668 31.25 244.668 32.13V41.25C244.668 41.47 244.588 41.65 244.428 41.79C244.288 41.93 244.118 42 243.918 42H240.438C240.218 42 240.038 41.93 239.898 41.79C239.758 41.65 239.688 41.47 239.688 41.25V40.2C239.428 40.58 239.078 40.93 238.638 41.25C238.198 41.57 237.678 41.82 237.078 42C236.498 42.2 235.818 42.3 235.038 42.3ZM236.448 38.88C237.028 38.88 237.548 38.76 238.008 38.52C238.488 38.26 238.858 37.87 239.118 37.35C239.398 36.81 239.538 36.14 239.538 35.34V34.92L236.988 35.37C236.048 35.53 235.358 35.78 234.918 36.12C234.498 36.44 234.288 36.82 234.288 37.26C234.288 37.6 234.388 37.89 234.588 38.13C234.788 38.37 235.048 38.56 235.368 38.7C235.688 38.82 236.048 38.88 236.448 38.88ZM248.803 42C248.583 42 248.403 41.93 248.263 41.79C248.123 41.65 248.053 41.47 248.053 41.25V27.15C248.053 26.95 248.123 26.78 248.263 26.64C248.403 26.48 248.583 26.4 248.803 26.4H252.253C252.473 26.4 252.653 26.48 252.793 26.64C252.933 26.78 253.003 26.95 253.003 27.15V28.35C253.543 27.73 254.183 27.25 254.923 26.91C255.683 26.57 256.533 26.4 257.473 26.4H258.793C258.993 26.4 259.163 26.47 259.303 26.61C259.463 26.75 259.543 26.93 259.543 27.15V30.24C259.543 30.44 259.463 30.62 259.303 30.78C259.163 30.92 258.993 30.99 258.793 30.99H255.883C255.063 30.99 254.423 31.22 253.963 31.68C253.523 32.12 253.303 32.75 253.303 33.57V41.25C253.303 41.47 253.223 41.65 253.063 41.79C252.923 41.93 252.743 42 252.523 42H248.803Z" fill="#300D38"/>
<path d="M31.361 6.29453C30.9344 6.10156 30.4774 6 30 6C29.5227 6 29.0657 6.10156 28.6391 6.29453L9.51489 14.4094C7.28051 15.3539 5.61489 17.5578 5.62505 20.2188C5.67583 30.2937 9.81958 48.7273 27.3188 57.1063C29.0149 57.9188 30.9852 57.9188 32.6813 57.1063C50.1805 48.7273 54.3243 30.2937 54.375 20.2188C54.3852 17.5578 52.7196 15.3539 50.4852 14.4094L31.361 6.29453ZM20.3415 35.0672C20.829 35.1891 21.3469 35.25 21.875 35.25C25.4602 35.25 28.375 32.3352 28.375 28.75V22.25H32.8641C34.093 22.25 35.2204 22.9406 35.7688 24.0477L36.5 25.5H43C43.8938 25.5 44.625 26.2312 44.625 27.125V30.375C44.625 34.8641 40.9891 38.5 36.5 38.5H31.625V43.6492C31.625 44.3906 31.0258 45 30.2743 45C30.0915 45 29.9086 44.9594 29.7461 44.8883L19.7219 40.5922C19.0516 40.3078 18.625 39.6477 18.625 38.9266C18.625 38.6422 18.686 38.368 18.818 38.1141L20.3415 35.0672ZM20.25 22.25H24.3125H25.125V25.5V28.75C25.125 30.5477 23.6727 32 21.875 32C20.0774 32 18.625 30.5477 18.625 28.75V23.875C18.625 22.9812 19.3563 22.25 20.25 22.25ZM33.25 27.125C33.25 26.694 33.0788 26.2807 32.7741 25.976C32.4693 25.6712 32.056 25.5 31.625 25.5C31.1941 25.5 30.7807 25.6712 30.476 25.976C30.1712 26.2807 30 26.694 30 27.125C30 27.556 30.1712 27.9693 30.476 28.274C30.7807 28.5788 31.1941 28.75 31.625 28.75C32.056 28.75 32.4693 28.5788 32.7741 28.274C33.0788 27.9693 33.25 27.556 33.25 27.125Z" fill="#300D38"/>
</svg>
